<svg width="177" height="48" viewBox="0 0 177 48" fill="none" xmlns="http://www.w3.org/2000/svg">
<g clip-path="url(#clip0_4071_2608)">
<mask id="mask0_4071_2608" style="mask-type:luminance" maskUnits="userSpaceOnUse" x="1" y="3" width="47" height="42">
<path d="M30.7286 40.7863L23.3305 4.96803C20.1812 14.352 10.1973 13.824 1.55469 8.16688L16.1434 24.4766L30.7286 40.7863ZM33.3663 44.4755L25.9682 8.6606C32.585 16.0595 41.556 11.6846 47.2601 3.10974L40.3115 23.7943L33.3663 44.4755Z" fill="white"/>
</mask>
<g mask="url(#mask0_4071_2608)">
<path d="M10.0313 49.2171L54.9001 40.1006L46.4235 -0.946289L1.55469 8.16685L10.0313 49.2171Z" fill="url(#paint0_linear_4071_2608)"/>
</g>
<path d="M61.8259 44.5235H54.4071L53.1073 39.864H43.8355L42.3836 44.5235H35.4004L43.3446 20.6126H54.0995L61.8259 44.5235ZM51.5032 34.6526L48.6304 25.824H48.4438L45.5087 34.6526H51.5032Z" fill="#141414"/>
<path d="M69.3969 26.1326V29.5338C69.9224 27.1749 71.5921 26.1326 74.6827 26.1326H76.8157V31.3441L72.6431 31.2823C70.3545 31.2515 69.3969 32.1395 69.3969 34.1932V44.5235H63.5234V26.1326H69.3969Z" fill="#141414"/>
<path d="M91.3425 44.5235H87.6331C81.6974 44.5235 80.2143 43.2961 80.2143 38.3315V31.0355H78.3613V26.1326H80.5254V22.2069H86.0878V26.1292H91.0348V31.0355H86.0878V36.8298C86.0878 39.0686 86.3056 39.3121 88.2208 39.3121H91.3425V44.5235Z" fill="#141414"/>
<path d="M94.125 19.9989H100.306V24.2915H94.125V19.9989ZM100.151 26.1326V44.5235H94.2771V26.1326H100.151Z" fill="#141414"/>
<path d="M102.777 26.1326H104.63C104.63 21.2263 106.144 20.0023 112.049 20.0023H122.866V24.2949H112.325C110.687 24.2949 110.5 24.4492 110.5 25.9509V26.136H114.517V31.0423H110.5V44.5303H104.626V31.0355H102.773V26.1326H102.777ZM122.714 26.1326V44.5235H116.84V26.1326H122.714Z" fill="#141414"/>
<path d="M134.707 40.6012C137.704 40.6012 138.046 40.4469 138.046 39.192C138.046 38.2732 137.182 37.8755 133.656 37.2309C127.35 36.0035 125.774 34.8412 125.774 31.3132C125.774 26.8697 127.596 25.7657 134.862 25.7657C141.97 25.7657 143.764 27.024 143.764 31.9886V32.5406H137.891V31.9886C137.891 30.24 137.583 30.0583 134.862 30.0583C132.235 30.0583 131.959 30.2126 131.959 31.4983C131.959 32.3555 132.484 32.6332 134.524 32.9383C142.281 34.1966 144.228 35.544 144.228 39.6206C144.228 43.8515 142.343 44.8937 134.862 44.8937C127.26 44.8937 125.342 43.6663 125.342 38.7635V38.3657H131.215V38.7635C131.215 40.416 131.554 40.6012 134.707 40.6012Z" fill="#141414"/>
<path d="M152.572 26.1326V28.248C153.191 26.5303 154.612 25.7657 156.932 25.7657C161.166 25.7657 162.836 26.592 163.331 29.5372C163.887 26.9315 165.464 25.7657 168.367 25.7657C174.023 25.7657 175.444 27.3909 175.444 33.8572V44.5235H169.57V34.6217C169.57 31.0663 169.294 30.6686 166.85 30.6686C164.81 30.6686 163.946 31.8035 163.977 34.4092V44.5235H158.166V34.6217C158.166 31.0663 157.889 30.6686 155.414 30.6686C153.437 30.6686 152.569 31.8035 152.569 34.4092V44.5235H146.695V26.1326H152.572Z" fill="#141414"/>
</g>
<defs>
<linearGradient id="paint0_linear_4071_2608" x1="36.2384" y1="43.043" x2="19.5471" y2="2.98708" gradientUnits="userSpaceOnUse">
<stop stop-color="#E60C84"/>
<stop offset="1" stop-color="#FFCF4B"/>
</linearGradient>
<clipPath id="clip0_4071_2608">
<rect width="177" height="48" fill="white"/>
</clipPath>
</defs>
</svg>
