<svg width="1920" height="980" viewBox="0 0 1920 980" fill="none" xmlns="http://www.w3.org/2000/svg">
<g opacity="0.8">
<mask id="mask0_4071_2596" style="mask-type:alpha" maskUnits="userSpaceOnUse" x="-18" y="-29" width="1957" height="1009">
<rect width="1956.85" height="1009" transform="matrix(-1 0 0 1 1938.85 -29)" fill="#F6F3F2"/>
</mask>
<g mask="url(#mask0_4071_2596)">
<g filter="url(#filter0_f_4071_2596)">
<path d="M1656.54 774.521C1472.42 797.737 1574.31 872.742 1547.5 1004.89V1017.39C1615.43 1022.75 1783.1 1047.75 1910.38 1104.9C2069.47 1176.33 2267.89 931.674 2448.44 945.961C2628.98 960.248 2366.21 720.946 2317.94 656.656C2269.68 592.366 2208.9 712.017 2103.43 747.733C1997.97 783.45 2040.87 813.809 1931.83 890.6C1822.79 967.391 1840.66 751.305 1656.54 774.521Z" fill="#FD7F57"/>
</g>
<g filter="url(#filter1_f_4071_2596)">
<path d="M1871.67 581.695C1790.16 668.809 1792.42 717.959 1803.74 731.645C1849.03 803.645 1967.13 925.509 2077.24 836.967C2214.88 726.29 2322.14 806.62 2397.21 892.306C2472.29 977.991 2710.04 781.628 2697.52 595.976C2685.01 410.324 2609.93 297.862 2397.21 280.01C2184.49 262.159 2343.59 324.638 2179.13 442.456C2014.68 560.274 1973.56 472.803 1871.67 581.695Z" fill="#763CD4" fill-opacity="0.85"/>
</g>
</g>
</g>
<defs>
<filter id="filter0_f_4071_2596" x="1082" y="177" width="1890" height="1402" filterUnits="userSpaceOnUse" color-interpolation-filters="sRGB">
<feFlood flood-opacity="0" result="BackgroundImageFix"/>
<feBlend mode="normal" in="SourceGraphic" in2="BackgroundImageFix" result="shape"/>
<feGaussianBlur stdDeviation="230.5" result="effect1_foregroundBlur_4071_2596"/>
</filter>
<filter id="filter1_f_4071_2596" x="1258" y="-263" width="1980" height="1716" filterUnits="userSpaceOnUse" color-interpolation-filters="sRGB">
<feFlood flood-opacity="0" result="BackgroundImageFix"/>
<feBlend mode="normal" in="SourceGraphic" in2="BackgroundImageFix" result="shape"/>
<feGaussianBlur stdDeviation="270" result="effect1_foregroundBlur_4071_2596"/>
</filter>
</defs>
</svg>
